<svg width="72" height="73" viewBox="0 0 72 73" fill="none" xmlns="http://www.w3.org/2000/svg">
<g clip-path="url(#clip0_263_217)">
<path d="M36 24.5C32.8174 24.5 29.7652 25.7643 27.5147 28.0147C25.2643 30.2652 24 33.3174 24 36.5C24 39.6826 25.2643 42.7348 27.5147 44.9853C29.7652 47.2357 32.8174 48.5 36 48.5C39.1826 48.5 42.2348 47.2357 44.4853 44.9853C46.7357 42.7348 48 39.6826 48 36.5C48 33.3174 46.7357 30.2652 44.4853 28.0147C42.2348 25.7643 39.1826 24.5 36 24.5Z" fill="#FFFEFE"/>
<path fill-rule="evenodd" clip-rule="evenodd" d="M21.6 0.5C15.8713 0.5 10.3773 2.77571 6.32649 6.82649C2.27571 10.8773 0 16.3713 0 22.1L0 50.9C0 56.6287 2.27571 62.1227 6.32649 66.1735C10.3773 70.2243 15.8713 72.5 21.6 72.5H50.4C56.1287 72.5 61.6227 70.2243 65.6735 66.1735C69.7243 62.1227 72 56.6287 72 50.9V22.1C72 16.3713 69.7243 10.8773 65.6735 6.82649C61.6227 2.77571 56.1287 0.5 50.4 0.5L21.6 0.5ZM19.2 36.5C19.2 32.0444 20.97 27.7712 24.1206 24.6206C27.2712 21.47 31.5444 19.7 36 19.7C40.4556 19.7 44.7288 21.47 47.8794 24.6206C51.03 27.7712 52.8 32.0444 52.8 36.5C52.8 40.9556 51.03 45.2288 47.8794 48.3794C44.7288 51.53 40.4556 53.3 36 53.3C31.5444 53.3 27.2712 51.53 24.1206 48.3794C20.97 45.2288 19.2 40.9556 19.2 36.5ZM52.8 19.7H57.6V14.9H52.8V19.7Z" fill="#FFFEFE"/>
</g>
<defs>
<clipPath id="clip0_263_217">
<rect width="72" height="72" fill="white" transform="translate(0 0.5)"/>
</clipPath>
</defs>
</svg>
