<svg width="323" height="79" viewBox="0 0 323 79" fill="none" xmlns="http://www.w3.org/2000/svg">
<g clip-path="url(#clip0_263_222)">
<path d="M36 27.5C32.8174 27.5 29.7652 28.7643 27.5147 31.0147C25.2643 33.2652 24 36.3174 24 39.5C24 42.6826 25.2643 45.7348 27.5147 47.9853C29.7652 50.2357 32.8174 51.5 36 51.5C39.1826 51.5 42.2348 50.2357 44.4853 47.9853C46.7357 45.7348 48 42.6826 48 39.5C48 36.3174 46.7357 33.2652 44.4853 31.0147C42.2348 28.7643 39.1826 27.5 36 27.5Z" fill="#FFFEFE"/>
<path fill-rule="evenodd" clip-rule="evenodd" d="M21.6 3.5C15.8713 3.5 10.3773 5.77571 6.32649 9.82649C2.27571 13.8773 0 19.3713 0 25.1L0 53.9C0 59.6287 2.27571 65.1227 6.32649 69.1735C10.3773 73.2243 15.8713 75.5 21.6 75.5H50.4C56.1287 75.5 61.6227 73.2243 65.6735 69.1735C69.7243 65.1227 72 59.6287 72 53.9V25.1C72 19.3713 69.7243 13.8773 65.6735 9.82649C61.6227 5.77571 56.1287 3.5 50.4 3.5L21.6 3.5ZM19.2 39.5C19.2 35.0444 20.97 30.7712 24.1206 27.6206C27.2712 24.47 31.5444 22.7 36 22.7C40.4556 22.7 44.7288 24.47 47.8794 27.6206C51.03 30.7712 52.8 35.0444 52.8 39.5C52.8 43.9556 51.03 48.2288 47.8794 51.3794C44.7288 54.53 40.4556 56.3 36 56.3C31.5444 56.3 27.2712 54.53 24.1206 51.3794C20.97 48.2288 19.2 43.9556 19.2 39.5ZM52.8 22.7H57.6V17.9H52.8V22.7Z" fill="#FFFEFE"/>
</g>
<g clip-path="url(#clip1_263_222)">
<path d="M101.936 45.748C102.008 45.82 102.032 45.82 102.104 45.844C102.128 45.868 102.152 45.868 102.2 45.868C104.12 45.868 105.368 44.428 105.368 41.644V41.02C105.368 38.5 104.408 36.148 102.2 34.228C100.376 32.62 98.312 31.948 96.104 31.948C92.792 31.948 90.176 33.388 88.232 36.268C87.224 37.78 86.72 39.46 86.72 41.308C86.72 44.284 87.872 46.804 90.368 48.724C92.096 50.068 94.016 50.644 96.104 50.644C97.856 50.644 99.584 50.116 101.336 49.036C101.456 48.964 101.552 48.94 101.672 48.94C102.128 48.94 102.512 49.468 102.512 49.948C102.512 50.74 101.192 51.484 98.576 52.18C97.832 52.372 97.112 52.468 96.416 52.468H95.816C93.104 52.468 90.536 51.508 88.304 49.372C85.904 47.092 84.848 44.356 84.848 41.212C84.848 38.02 86.144 35.26 88.736 32.932C90.848 31.012 93.272 30.1 95.864 30.1H96.296C99.56 30.1 102.392 31.396 104.768 34.276C106.496 36.388 107.264 38.74 107.264 41.26C107.264 44.452 106.184 46.468 104.024 47.332C103.472 47.548 102.896 47.692 102.008 47.692C100.664 47.692 100.496 46.828 99.608 46.828C99.152 46.828 97.784 47.956 95.864 47.956C92.84 47.956 89.912 45.532 89.912 41.764C89.912 38.236 92.48 35.524 95.864 35.524C96.464 35.524 97.112 35.596 97.76 35.788C98.792 36.1 99.272 36.604 99.68 36.604H99.776C100.208 36.604 100.304 35.884 100.952 35.884C101.408 35.884 101.864 36.172 101.864 36.82V45.58C101.864 45.676 101.888 45.724 101.936 45.748ZM99.992 41.764C99.992 38.74 97.952 37.252 95.912 37.252C93.872 37.252 91.784 38.788 91.784 41.764C91.784 44.764 93.824 46.252 95.888 46.252C97.904 46.252 99.992 44.764 99.992 41.764ZM110.957 41.068V29.116C110.957 28.564 111.389 28.132 111.941 28.132C112.493 28.132 112.925 28.564 112.925 29.116V41.068C112.925 44.476 115.277 46.012 117.629 46.012C118.181 46.012 118.613 46.444 118.613 46.996C118.613 47.548 118.181 47.98 117.629 47.98C114.365 47.98 110.957 45.748 110.957 41.068ZM126.34 36.148C124.348 36.148 122.188 37.372 122.188 38.908C122.188 40.252 124.108 41.668 126.34 41.668C128.956 41.668 130.252 40.18 130.252 38.908C130.252 37.876 129.148 36.148 126.34 36.148ZM119.62 41.068C119.62 39.22 120.148 37.756 121.012 36.628C122.284 34.996 124.252 34.18 126.364 34.18C129.724 34.18 132.22 36.292 132.22 38.908C132.22 41.524 129.844 43.636 126.124 43.636C123.676 43.636 122.164 42.412 121.612 41.788C121.924 44.692 124.084 46.012 126.292 46.012C127.012 46.012 127.708 45.868 128.356 45.58C128.524 45.508 128.62 45.484 128.788 45.484C129.34 45.484 129.772 45.916 129.772 46.468C129.772 46.876 129.532 47.212 129.172 47.38C128.284 47.788 127.324 47.98 126.292 47.98C123.028 47.98 119.62 45.748 119.62 41.068ZM144.736 34.78C145.12 34.948 145.312 35.26 145.312 35.668C145.312 36.22 144.88 36.652 144.328 36.652C144.208 36.652 144.064 36.628 143.92 36.556C143.272 36.268 142.576 36.124 141.832 36.124C139.432 36.124 137.128 37.636 137.128 41.044C137.128 44.476 139.432 45.988 141.832 45.988C142.552 45.988 143.248 45.844 143.896 45.556C144.04 45.484 144.184 45.46 144.328 45.46C144.88 45.46 145.312 45.892 145.312 46.444C145.312 46.852 145.072 47.188 144.712 47.356C143.848 47.764 142.888 47.956 141.832 47.956C138.568 47.956 135.16 45.724 135.16 41.044C135.16 36.364 138.544 34.156 141.832 34.156C142.816 34.156 143.8 34.324 144.736 34.78ZM151.008 37.156V41.068C151.008 44.476 153.312 46.012 155.712 46.012C156.264 46.012 156.696 46.444 156.696 46.996C156.696 47.548 156.264 47.98 155.712 47.98C152.448 47.98 149.04 45.748 149.04 41.068V37.156C149.04 36.676 148.656 36.316 148.2 36.316H147.384C146.928 36.316 146.544 35.932 146.544 35.476C146.544 34.996 146.928 34.636 147.384 34.636H148.2C148.656 34.636 149.04 34.252 149.04 33.796V29.092C149.04 28.54 149.472 28.108 150.024 28.108C150.576 28.108 151.008 28.54 151.008 29.092V33.796C151.008 34.252 151.392 34.636 151.848 34.636H154.8C155.256 34.636 155.64 34.996 155.64 35.476C155.64 35.932 155.256 36.316 154.8 36.316H151.848C151.392 36.316 151.008 36.676 151.008 37.156ZM171.926 35.596V41.068C171.926 45.748 168.542 47.98 165.254 47.98C161.99 47.98 158.582 45.748 158.582 41.068V35.596C158.582 35.044 159.014 34.612 159.566 34.612C160.118 34.612 160.55 35.044 160.55 35.596V41.068C160.55 44.476 162.902 46.012 165.254 46.012C167.63 46.012 169.982 44.476 169.982 41.068V35.596C169.982 35.044 170.39 34.612 170.942 34.612C171.494 34.612 171.926 35.044 171.926 35.596ZM177.589 41.044V46.516C177.589 47.068 177.157 47.5 176.605 47.5C176.053 47.5 175.621 47.068 175.621 46.516V41.044C175.621 36.364 179.005 34.156 182.293 34.156C183.349 34.156 184.333 34.348 185.221 34.756C185.533 34.924 185.773 35.26 185.773 35.644C185.773 36.196 185.341 36.628 184.789 36.628C184.621 36.628 184.501 36.604 184.381 36.556C183.733 36.268 183.037 36.124 182.293 36.124C179.893 36.124 177.589 37.636 177.589 41.044ZM201.551 41.068V46.516C201.551 47.068 201.119 47.5 200.567 47.5C200.015 47.5 199.607 47.068 199.607 46.516V41.068C199.607 37.66 197.255 36.124 194.879 36.124C192.527 36.124 190.175 37.66 190.175 41.068V46.516C190.175 47.068 189.743 47.5 189.191 47.5C188.639 47.5 188.207 47.068 188.207 46.516V41.068C188.207 36.388 191.615 34.156 194.879 34.156C198.167 34.156 201.551 36.388 201.551 41.068ZM207.19 38.836C206.926 39.46 206.806 40.204 206.806 41.044C206.806 44.476 209.11 45.988 211.51 45.988C212.686 45.988 213.886 45.604 214.75 44.812C215.638 43.972 216.214 42.772 216.214 41.044C216.214 40.204 216.07 39.46 215.806 38.836C215.038 36.964 213.31 36.124 211.51 36.124C209.662 36.124 208.006 36.964 207.19 38.836ZM216.214 35.98V35.596C216.214 35.044 216.646 34.612 217.198 34.612C217.75 34.612 218.182 35.044 218.182 35.596V42.004C218.182 43.324 218.782 44.956 219.886 45.676C220.006 45.748 220.126 45.868 220.198 45.988C220.486 46.444 220.342 47.044 219.934 47.332C219.55 47.596 219.142 47.548 218.83 47.332C218.134 46.852 217.702 46.372 217.342 45.7C217.174 45.388 216.91 45.316 216.718 45.58C215.398 47.212 213.43 47.956 211.51 47.956C208.246 47.956 204.838 45.724 204.838 41.044C204.838 36.364 208.222 34.156 211.51 34.156C213.238 34.156 214.942 34.756 216.214 35.98ZM222.949 46.564C222.949 46.084 223.261 45.628 223.933 45.628C224.605 45.628 224.917 46.084 224.917 46.564C224.917 47.02 224.605 47.5 223.933 47.5C223.261 47.5 222.949 47.044 222.949 46.564ZM227.465 42.148V35.596C227.465 35.044 227.897 34.612 228.449 34.612C229.001 34.612 229.433 35.044 229.433 35.596V42.028C229.433 43.66 230.369 45.268 231.737 46.156C232.049 46.348 232.193 46.684 232.193 46.996C232.193 47.5 231.785 47.98 231.233 47.98C230.345 47.98 229.145 46.588 228.593 45.724C227.921 44.668 227.465 43.42 227.465 42.148ZM227.465 31.396C227.465 30.916 227.777 30.436 228.449 30.436C229.121 30.436 229.433 30.916 229.433 31.396C229.433 31.852 229.121 32.332 228.449 32.332C227.777 32.332 227.465 31.852 227.465 31.396ZM246.831 29.116V41.068C246.831 45.748 243.423 47.98 240.159 47.98C236.871 47.98 233.487 45.748 233.487 41.068C233.487 36.388 236.823 34.18 240.159 34.18C241.887 34.18 243.591 34.756 244.863 35.98V29.116C244.863 28.564 245.295 28.132 245.847 28.132C246.399 28.132 246.831 28.564 246.831 29.116ZM244.863 41.02C244.863 37.636 242.511 36.148 240.159 36.148C237.759 36.148 235.455 37.66 235.455 41.068C235.455 44.476 237.759 46.012 240.159 46.012C242.511 46.012 244.863 44.524 244.863 41.02Z" fill="white"/>
</g>
<defs>
<clipPath id="clip0_263_222">
<rect width="72" height="72" fill="white" transform="translate(0 3.5)"/>
</clipPath>
<clipPath id="clip1_263_222">
<rect width="240" height="28" fill="white" transform="translate(83 25.5)"/>
</clipPath>
</defs>
</svg>
