<svg width="80" height="80" viewBox="0 0 80 80" fill="none" xmlns="http://www.w3.org/2000/svg">
<circle cx="40" cy="40" r="40" fill="white"/>
<path d="M21.25 29.5834C21.25 28.4783 21.689 27.4185 22.4704 26.6371C23.2518 25.8557 24.3116 25.4167 25.4167 25.4167H54.5833C55.6884 25.4167 56.7482 25.8557 57.5296 26.6371C58.311 27.4185 58.75 28.4783 58.75 29.5834V50.4167C58.75 51.5218 58.311 52.5816 57.5296 53.363C56.7482 54.1444 55.6884 54.5834 54.5833 54.5834H25.4167C24.3116 54.5834 23.2518 54.1444 22.4704 53.363C21.689 52.5816 21.25 51.5218 21.25 50.4167V29.5834Z" stroke="#EDB230" stroke-width="3" stroke-linecap="round" stroke-linejoin="round"/>
<path d="M21.25 29.5835L40 42.0835L58.75 29.5835" stroke="#EDB230" stroke-width="3" stroke-linecap="round" stroke-linejoin="round"/>
</svg>
