<svg width="80" height="80" viewBox="0 0 80 80" fill="none" xmlns="http://www.w3.org/2000/svg">
<circle cx="40" cy="40" r="40" fill="white"/>
<path d="M38.3525 26.2013C38.0751 25.3958 37.5193 24.7341 36.7991 24.3519C36.0788 23.9696 35.2488 23.8958 34.4792 24.1456C30.8309 25.3454 28.2812 28.685 28.8286 32.5486C29.4409 36.8366 30.8031 40.9637 32.8444 44.7151C34.8638 48.4578 37.5113 51.7726 40.6547 54.4939C43.4818 56.9336 47.4488 56.2617 50.246 53.4621C50.8344 52.873 51.1914 52.0678 51.245 51.209C51.2985 50.3502 51.0447 49.5016 50.5347 48.8346L48.5325 46.2229C48.1314 45.6977 47.5917 45.3132 46.9833 45.1193C46.3749 44.9253 45.7258 44.9308 45.1204 45.1351L40.5009 46.6949L39.6948 45.807C38.6791 44.6833 37.7906 43.4362 37.0476 42.0914C36.3265 40.7314 35.7649 39.2821 35.3753 37.7759L35.0641 36.5961L38.6262 33.0965C39.0962 32.631 39.4259 32.0269 39.5735 31.3611C39.721 30.6953 39.6797 29.9977 39.4548 29.3569L38.3562 26.2053L38.3525 26.2013ZM33.3768 20.322C35.0609 19.7724 36.8783 19.9306 38.4566 20.7642C40.035 21.5977 41.2546 23.0436 41.8658 24.8055L42.9644 27.9571C43.449 29.3417 43.5367 30.8488 43.2162 32.2867C42.8957 33.7246 42.1816 35.0283 41.1646 36.0321L39.3273 37.8359C39.5636 38.5318 39.8823 39.3277 40.2947 40.0997C40.7072 40.8596 41.1871 41.5515 41.6258 42.1154L43.988 41.3155C45.3087 40.8708 46.724 40.8591 48.051 41.2819C49.3779 41.7047 50.5553 42.5427 51.4309 43.6872L53.4331 46.2989C54.5459 47.7504 55.1005 49.5983 54.985 51.4692C54.8694 53.3401 54.0923 55.0945 52.8107 56.3777C49.0836 60.1093 42.9981 61.6571 38.3 57.6016C34.7992 54.5722 31.8505 50.8819 29.601 46.7149C27.3237 42.5307 25.8038 37.9274 25.1203 33.1445C24.2204 26.7732 28.5062 21.9218 33.3768 20.326V20.322Z" fill="#EDB230"/>
</svg>
